<svg width="25" height="25" viewBox="0 0 25 25" fill="none" xmlns="http://www.w3.org/2000/svg">
<path d="M24.8958 7.39583C24.7917 6.04167 24.5833 5.20833 24.2708 4.375C24.0625 3.54167 23.6458 2.8125 22.9167 2.08333C22.1875 1.35417 21.5625 0.9375 20.7292 0.625C19.8958 0.3125 19.0625 0.104167 17.7083 0C16.3542 0 15.9375 0 12.5 0C9.0625 0 8.64583 0 7.39583 0.104167C6.04167 0.104167 5.10417 0.3125 4.27083 0.625C3.54167 0.9375 2.8125 1.35417 2.08333 2.08333C1.35417 2.8125 0.9375 3.54167 0.625 4.27083C0.3125 5.10417 0.104167 6.04167 0.104167 7.39583C0 8.64583 0 9.0625 0 12.5C0 15.9375 0 16.3542 0.104167 17.6042C0.208333 18.9583 0.416667 19.7917 0.729167 20.625C0.9375 21.4583 1.35417 22.1875 2.08333 22.9167C2.8125 23.6458 3.4375 24.0625 4.27083 24.375C5.10417 24.6875 5.9375 24.8958 7.29167 25C8.64583 25 9.0625 25 12.5 25C15.9375 25 16.3542 25 17.6042 24.8958C18.9583 24.7917 19.7917 24.5833 20.625 24.2708C21.4583 23.9583 22.1875 23.5417 22.8125 22.8125C23.4375 22.0833 23.9583 21.4583 24.2708 20.625C24.5833 19.7917 24.7917 18.9583 24.8958 17.6042C25 16.3542 25 15.9375 25 12.5C25 9.0625 25 8.64583 24.8958 7.39583ZM22.7083 17.5C22.6042 18.75 22.5 19.375 22.2917 19.7917C22.0833 20.4167 21.7708 20.8333 21.3542 21.25C20.9375 21.6667 20.5208 21.9792 19.8958 22.1875C19.4792 22.3958 18.75 22.6042 17.6042 22.6042C16.25 22.7083 15.9375 22.7083 12.6042 22.7083C9.27083 22.7083 8.85417 22.7083 7.60417 22.6042C6.35417 22.5 5.72917 22.3958 5.3125 22.1875C4.6875 21.9792 4.27083 21.6667 3.85417 21.25C3.4375 20.8333 3.125 20.4167 2.91667 19.7917C2.70833 19.375 2.5 18.6458 2.5 17.5C2.39583 16.1458 2.39583 15.8333 2.39583 12.5C2.39583 9.16667 2.39583 8.75 2.5 7.5C2.39583 6.25 2.60417 5.52083 2.70833 5.10417C2.91667 4.47917 3.22917 4.0625 3.64583 3.64583C4.0625 3.22917 4.47917 2.91667 5.10417 2.70833C5.52083 2.60417 6.25 2.39583 7.5 2.29167C8.75 2.29167 9.16667 2.29167 12.5 2.29167C15.8333 2.29167 16.25 2.29167 17.5 2.39583C18.75 2.5 19.375 2.60417 19.7917 2.8125C20.4167 3.02083 20.8333 3.33333 21.25 3.75C21.6667 4.16667 21.9792 4.58333 22.1875 5.20833C22.3958 5.625 22.6042 6.35417 22.6042 7.5C22.7083 8.85417 22.7083 9.16667 22.7083 12.5C22.7083 15.8333 22.7083 16.25 22.7083 17.5Z" fill="white"/>
<path d="M12.5 6.25C9.0625 6.25 6.25 9.0625 6.25 12.5C6.25 15.9375 9.0625 18.75 12.5 18.75C15.9375 18.75 18.75 15.9375 18.75 12.5C18.75 9.0625 15.9375 6.25 12.5 6.25ZM12.5 16.5625C10.2083 16.5625 8.4375 14.7917 8.4375 12.5C8.4375 10.2083 10.2083 8.4375 12.5 8.4375C14.7917 8.4375 16.5625 10.2083 16.5625 12.5C16.5625 14.7917 14.7917 16.5625 12.5 16.5625Z" fill="white"/>
<path d="M19.2705 7.8125C20.1335 7.8125 20.833 7.11294 20.833 6.25C20.833 5.38706 20.1335 4.6875 19.2705 4.6875C18.4076 4.6875 17.708 5.38706 17.708 6.25C17.708 7.11294 18.4076 7.8125 19.2705 7.8125Z" fill="white"/>
</svg>
