<svg width="25" height="17" viewBox="0 0 25 17" fill="none" xmlns="http://www.w3.org/2000/svg">
<path d="M24.6875 3.4806C24.6875 3.4806 24.375 1.94504 23.75 1.12608C22.8125 0.204741 21.6667 0.307112 21.25 0.204741C17.8125 -1.98307e-07 12.5 0 12.5 0C12.5 0 7.1875 -1.98307e-07 3.75 0.204741C3.33333 0.307112 2.1875 0.307112 1.25 1.22845C0.520833 1.94504 0.3125 3.58297 0.3125 3.58297C0.3125 3.58297 0 5.52802 0 7.37069V9.11099C0 11.056 0.3125 12.8987 0.3125 12.8987C0.3125 12.8987 0.625 14.4343 1.25 15.2532C2.1875 16.1746 3.4375 16.0722 4.0625 16.1746C5.9375 16.3793 12.5 16.3793 12.5 16.3793C12.5 16.3793 17.8125 16.3793 21.25 16.1746C21.6667 16.0722 22.8125 16.0722 23.75 15.1509C24.4792 14.4343 24.6875 12.7963 24.6875 12.7963C24.6875 12.7963 25 10.8513 25 9.11099V7.37069C25 5.42565 24.6875 3.4806 24.6875 3.4806ZM9.6875 11.3631V4.50431L16.875 7.98491L9.6875 11.3631Z" fill="white"/>
</svg>
