<svg id="Layer_1" data-name="Layer 1" xmlns="http://www.w3.org/2000/svg" viewBox="0 0 34.24 24.91"><defs><style>.cls-1{fill:none;}.cls-2{fill:#33aef2;}</style></defs><ellipse class="cls-1" cx="15.08" cy="22.43" rx="0.92" ry="0.98"/><path class="cls-1" d="M24.94,22.43a.93.93,0,1,0,.93-1A1,1,0,0,0,24.94,22.43Z"/><path class="cls-2" d="M33.6,6a3.89,3.89,0,0,0-3.23-1.71H13.77A.75.75,0,0,0,13,5a.69.69,0,0,0,.15.42l-5,.11-1-2.92A3.85,3.85,0,0,0,5.73.71,3.77,3.77,0,0,0,3.5,0H.75A.76.76,0,0,0,0,.75a.76.76,0,0,0,.75.75H3.51a2.22,2.22,0,0,1,1.36.43A2.45,2.45,0,0,1,5.75,3.1l4.82,14.28A3.85,3.85,0,0,0,12,19.27a3.69,3.69,0,0,0,2.18.71h.54a2.43,2.43,0,1,0,.71,0H25.51a2.43,2.43,0,1,0,.71,0H27a3.84,3.84,0,0,0,2.15-.64,3.94,3.94,0,0,0,1.44-1.75L34,9.51A3.79,3.79,0,0,0,33.6,6ZM16,22.43a.93.93,0,1,1-1.85,0,.93.93,0,1,1,1.85,0Zm10.79,0a.93.93,0,1,1-1.85,0,.93.93,0,1,1,1.85,0Zm.34-12.85-6.25,6.25a1.05,1.05,0,0,1-.71.29,1,1,0,0,1-.71-.29L16.34,12.7a1,1,0,0,1,1.41-1.41l2.42,2.42,5.54-5.55a1,1,0,1,1,1.42,1.42Z"/></svg>