<svg width="29" height="21" viewBox="0 0 29 21" fill="none" xmlns="http://www.w3.org/2000/svg">
<path d="M0.966706 1.00023H3.19638C3.71867 0.99309 4.23026 1.15364 4.66069 1.45978C5.09111 1.76591 5.41919 2.20257 5.59976 2.7096L9.51204 14.2909C9.69273 14.7979 10.0209 15.2345 10.4514 15.5406C10.8818 15.8467 11.3934 16.0073 11.9157 16.0002H22.3177C22.8137 16.006 23.3004 15.8612 23.7177 15.5839C24.1351 15.3065 24.4646 14.9087 24.6657 14.4396L27.3618 7.8771C28.0373 6.23335 26.8114 4.43773 25.0125 4.43773H11.5396" stroke="white" stroke-width="1.5" stroke-linecap="round" stroke-linejoin="round"/>
<path d="M21.3574 20.0002C20.6067 20.0002 19.998 19.3706 19.998 18.594C19.998 17.8173 20.6067 17.1877 21.3574 17.1877C22.1082 17.1877 22.7168 17.8173 22.7168 18.594C22.7168 19.3706 22.1082 20.0002 21.3574 20.0002Z" stroke="white" stroke-width="1.5" stroke-linecap="round" stroke-linejoin="round"/>
<path d="M12.5969 20.0002C11.8462 20.0002 11.2375 19.3706 11.2375 18.594C11.2375 17.8173 11.8462 17.1877 12.5969 17.1877C13.3477 17.1877 13.9563 17.8173 13.9563 18.594C13.9563 19.3706 13.3477 20.0002 12.5969 20.0002Z" stroke="white" stroke-width="1.5" stroke-linecap="round" stroke-linejoin="round"/>
</svg>
