<svg width="24" height="24" viewBox="0 0 24 24" fill="none" xmlns="http://www.w3.org/2000/svg">
<path d="M23.0401 18.7668C23.315 19.0426 23.5211 19.3793 23.6416 19.7496C23.7622 20.1199 23.7938 20.5134 23.734 20.8982C23.6742 21.283 23.5247 21.6483 23.2974 21.9646C23.0701 22.2808 22.7716 22.5391 22.426 22.7185C20.4508 23.7742 18.1494 24.044 15.9836 23.4738C10.2354 22.0268 1.97303 13.7644 0.525968 8.01617C-0.0442391 5.85035 0.225566 3.54902 1.28126 1.57382C1.46067 1.22817 1.71895 0.929635 2.0352 0.702382C2.35145 0.475128 2.71677 0.325544 3.10158 0.265743C3.4864 0.205942 3.87988 0.237604 4.25018 0.358166C4.62048 0.478728 4.95718 0.684801 5.23303 0.959698L7.68597 3.41146C8.0397 3.76165 8.27907 4.21077 8.37252 4.69968C8.46597 5.18858 8.40914 5.69432 8.2095 6.15029C7.99103 6.66186 7.68083 7.12916 7.2942 7.52911C4.4895 10.3338 13.6671 19.5115 16.4707 16.7056C16.8707 16.3176 17.3384 16.0062 17.8507 15.7868C18.3066 15.5868 18.8124 15.5298 19.3014 15.6232C19.7904 15.7167 20.2395 15.9563 20.5895 16.3103L23.0401 18.7668Z" fill="#E58100"/>
</svg>
