<svg id="Layer_1" data-name="Layer 1" xmlns="http://www.w3.org/2000/svg" viewBox="0 0 36.92 57.19"><path d="M15.19,34.44V4.52c0-.5,0-1,0-1.49a3.25,3.25,0,0,1,6.48,0c0,.49,0,1,0,1.49V34.38c.43-.37.73-.6,1-.87l8-8a11.67,11.67,0,0,1,.89-.84,3.23,3.23,0,0,1,4.59,4.51,8.06,8.06,0,0,1-.74.8L21.3,44.14c-2,2-3.66,2-5.7,0Q8.38,36.93,1.2,29.72c-2-2-1.42-4.85,1.1-5.65a3.32,3.32,0,0,1,3.55,1.09c2.71,2.73,5.44,5.45,8.16,8.17C14.32,33.64,14.65,33.93,15.19,34.44Z" transform="translate(0)"/><path d="M18.56,50.67H34.3a2.42,2.42,0,0,1,2.32,1.75,4,4,0,0,1-.09,3.23,2.34,2.34,0,0,1-2.2,1.55H3.26c-.3,0-.6,0-.9,0C1,57.06,0,55.69,0,54s1-3.16,2.33-3.27c.53,0,1.07,0,1.6,0C8.81,50.66,13.69,50.67,18.56,50.67Z" transform="translate(0)"/></svg>