<svg width="24" height="18" viewBox="0 0 24 18" fill="none" xmlns="http://www.w3.org/2000/svg">
<path d="M21.2011 0.493896H2.79891C1.25288 0.493896 0 1.74677 0 3.29238V14.7077C0 16.2534 1.25288 17.5062 2.79891 17.5062H21.2011C22.7467 17.5062 24 16.2534 24 14.7077V3.29238C24 1.74677 22.7467 0.493896 21.2011 0.493896ZM22.6636 15.4617L22.1308 16.0927L14.6699 10.0035L13.5144 11.1029C12.6581 11.8893 11.342 11.8893 10.4856 11.1029L9.33014 10.0035L1.86919 16.0927L1.33641 15.4617L8.34141 9.06251L1.29052 2.43607L1.70738 1.88374L12 9.68257L22.2926 1.88374L22.7091 2.43607L15.6586 9.06251L22.6636 15.4617Z" fill="#E58100"/>
</svg>
