<svg width="20" height="24" viewBox="0 0 20 24" fill="none" xmlns="http://www.w3.org/2000/svg">
<path d="M10.0001 0C4.76979 0 0.526367 4.24342 0.526367 9.47368C0.538702 10.5962 0.742239 11.7064 1.13698 12.7549L1.11231 12.7488C2.11765 15.8882 7.0827 20.773 9.99389 23.6904H10.0001V23.6842C12.3808 21.3035 16.1246 17.4856 17.9688 14.5991C18.382 13.9453 18.7089 13.3224 18.894 12.7488L18.8631 12.7549C19.2579 11.7064 19.4676 10.5962 19.4737 9.47368C19.4737 4.24342 15.2365 0 10.0001 0ZM10.0001 5.82854C12.0107 5.82854 13.6452 7.46299 13.6452 9.47368C13.6452 11.4844 12.0107 13.1188 10.0001 13.1188C7.98936 13.1127 6.36107 11.4844 6.36107 9.47368C6.3549 7.46299 7.98936 5.8347 10.0001 5.82854Z" fill="#E58100"/>
</svg>
