<svg id="Layer_1" data-name="Layer 1" xmlns="http://www.w3.org/2000/svg" viewBox="0 0 19.6 19.59"><defs><style>.cls-1{fill:#1c1c1b;}</style></defs><path class="cls-1" d="M10.27,8.07l1.43,4a.78.78,0,0,0,1,.49l4-1.43a.8.8,0,0,0,.49-1l-1.44-4a.78.78,0,0,0-1-.49L10.76,7.06A.77.77,0,0,0,10.27,8.07Z" transform="translate(-0.78 -0.12)"/><path class="cls-1" d="M9.19,5a.78.78,0,0,0,1,.49l2.75-1a.8.8,0,0,0,.49-1L12.49.75a.78.78,0,0,0-1-.49l-2.75,1a.77.77,0,0,0-.49,1Z" transform="translate(-0.78 -0.12)"/><path class="cls-1" d="M20.33,13.73l-.42-1.21a.62.62,0,0,0-.82-.4l-7.42,2.59A3.24,3.24,0,0,1,13.14,17L20,14.64A.72.72,0,0,0,20.33,13.73Z" transform="translate(-0.78 -0.12)"/><path class="cls-1" d="M9.87,15.2a2.26,2.26,0,1,0,2.26,2.25A2.27,2.27,0,0,0,9.87,15.2Z" transform="translate(-0.78 -0.12)"/><path class="cls-1" d="M9.87,14.15a2.21,2.21,0,0,1,.82.13L6.28,1.76,5.89.55A.62.62,0,0,0,5.07.16L1.21,1.4a.62.62,0,0,0-.39.82l.39,1.21A.62.62,0,0,0,2,3.82l2-.65L8.08,14.64A3.71,3.71,0,0,1,9.87,14.15Z" transform="translate(-0.78 -0.12)"/></svg>