<svg id="Layer_1" data-name="Layer 1" xmlns="http://www.w3.org/2000/svg" viewBox="0 0 23 19.55"><defs><style>.cls-1{fill:#1c1c1b;}</style></defs><path class="cls-1" d="M20.41,14.14a.77.77,0,0,0-.78.77v2.35a2,2,0,0,1-.27,1.25,2,2,0,0,1-1.26.23H3a1.91,1.91,0,0,1-1.09-.37,2.26,2.26,0,0,1-.36-1.18V3.65c0-.61.11-1,.26-1.09A2.15,2.15,0,0,1,3,2.26h15a2.46,2.46,0,0,1,1.27.28,1.27,1.27,0,0,1,.28.85V5.76a.77.77,0,0,0,.78.76.78.78,0,0,0,.79-.76V3.35a2.7,2.7,0,0,0-.78-1.92,3.59,3.59,0,0,0-2.3-.7H3A3.51,3.51,0,0,0,.8,1.41,2.78,2.78,0,0,0,0,3.65V17.26a3.65,3.65,0,0,0,.71,2.08,3.27,3.27,0,0,0,2.21.93H18.08a3.17,3.17,0,0,0,2.41-.7,3.18,3.18,0,0,0,.71-2.31V14.91A.78.78,0,0,0,20.41,14.14Z" transform="translate(0 -0.72)"/><path class="cls-1" d="M15.34,9.52a.92.92,0,1,0,.95.92A.94.94,0,0,0,15.34,9.52Z" transform="translate(0 -0.72)"/><path class="cls-1" d="M21.08,7.29H13.42a1.88,1.88,0,0,0-1.91,1.87V11.7a1.89,1.89,0,0,0,1.91,1.87h7.66A1.9,1.9,0,0,0,23,11.7V9.16A1.89,1.89,0,0,0,21.08,7.29Zm.35,4.41a.34.34,0,0,1-.35.34H13.42a.35.35,0,0,1-.35-.34V9.16a.35.35,0,0,1,.35-.34h7.66a.34.34,0,0,1,.35.34Z" transform="translate(0 -0.72)"/></svg>