<svg id="Layer_1" data-name="Layer 1" xmlns="http://www.w3.org/2000/svg" viewBox="0 0 21.7 21.1"><defs><style>.cls-1{fill:#1c1c1b;}</style></defs><path class="cls-1" d="M21.1,2A4.39,4.39,0,0,0,18,.7H5.1A4,4,0,0,0,2,2,4.57,4.57,0,0,0,.7,5.1v9.1a4.44,4.44,0,0,0,4.4,4.4H6.2v3.2l6.5-3.2H18a4.44,4.44,0,0,0,4.4-4.4V5.1A4.39,4.39,0,0,0,21.1,2Zm-.2,12.2a3.08,3.08,0,0,1-3,3H12.2L7.6,19.5V17.2H5.1A2.88,2.88,0,0,1,3,16.3a2.78,2.78,0,0,1-.8-2.1V5.1A3.23,3.23,0,0,1,3,3a2.72,2.72,0,0,1,2.1-.9H18a2.88,2.88,0,0,1,2.1.9A2.88,2.88,0,0,1,21,5.1v9.1Z" transform="translate(-0.7 -0.7)"/><rect class="cls-1" x="14.5" y="8" width="1.8" height="2"/><rect class="cls-1" x="9.9" y="8" width="1.8" height="2"/><rect class="cls-1" x="5.3" y="8" width="1.8" height="2"/></svg>