<svg id="Layer_1" data-name="Layer 1" xmlns="http://www.w3.org/2000/svg" viewBox="0 0 18.07 19.72"><defs><style>.cls-1{fill:#1c1c1b;}</style></defs><path class="cls-1" d="M15.93,15.38a2.9,2.9,0,0,0,.61-1.78,2.88,2.88,0,1,0-5.13,1.78,4.94,4.94,0,0,0-2.67,4.38h1.64a3.29,3.29,0,1,1,6.57,0H18.6A5,5,0,0,0,15.93,15.38Zm-2.26-.55A1.23,1.23,0,1,1,14.9,13.6,1.23,1.23,0,0,1,13.67,14.83Z" transform="translate(-0.53 -0.04)"/><polygon class="cls-1" points="0 0 0 19.72 7.39 19.72 7.39 18.07 1.64 18.07 1.64 1.64 16.43 1.64 16.43 9.86 18.07 9.86 18.07 0 0 0"/><rect class="cls-1" x="3.29" y="10.68" width="4.93" height="1.64"/><rect class="cls-1" x="3.29" y="7.4" width="8.21" height="1.64"/><rect class="cls-1" x="3.29" y="4.11" width="11.5" height="1.64"/></svg>