<svg width="46" height="46" viewBox="0 0 46 46" fill="none" xmlns="http://www.w3.org/2000/svg">
<path d="M23 0C10.2974 0 0 10.2974 0 23C0 35.7026 10.2974 46 23 46C35.7026 46 46 35.7026 46 23C46 10.2974 35.7026 0 23 0ZM21.2396 10.8262L22.2279 15.3774C19.3322 16.0184 16.6694 16.852 16.885 20.0857H20.2878V32.1978H10.0372V20.8774C10.0409 11.881 16.6459 11.149 21.2396 10.8262ZM34.9717 10.8262L35.9628 15.3774C33.067 16.0184 30.4042 16.852 30.6199 20.0857H34.0227V32.1978H23.7721V20.8774C23.7757 11.881 30.378 11.149 34.9717 10.8262Z" fill="#FFE920"/>
</svg>
