<svg id="Layer_1" data-name="Layer 1" xmlns="http://www.w3.org/2000/svg" viewBox="0 0 30 30"><defs><style>.cls-1{fill:#1c1c1b;}</style></defs><path class="cls-1" d="M15,0A15,15,0,1,0,30,15,15,15,0,0,0,15,0Zm5,21.6a8.17,8.17,0,0,1-5,1.7,8.31,8.31,0,0,1-8.1-6.54l-.6.6a1.38,1.38,0,0,1-2-1.95l2.77-2.77A1.38,1.38,0,0,1,9,12.54l3.46,2.76h0a1.38,1.38,0,1,1-1.72,2.16l-.92-.73A5.54,5.54,0,0,0,15,20.53a5.43,5.43,0,0,0,3.31-1.13A1.38,1.38,0,1,1,20,21.6Zm2.91-4.24a1.38,1.38,0,0,1-1.84.1L17.59,14.7h0a1.38,1.38,0,0,1,1.73-2.16l.91.73A5.51,5.51,0,0,0,15,9.47a5.46,5.46,0,0,0-3.32,1.13A1.38,1.38,0,1,1,10,8.4a8.15,8.15,0,0,1,5-1.7,8.31,8.31,0,0,1,8.1,6.54l.6-.6h0a1.39,1.39,0,0,1,2,0h0a1.38,1.38,0,0,1,0,1.95Z" transform="translate(0 0)"/></svg>