<svg width="18" height="12" viewBox="0 0 18 12" fill="none" xmlns="http://www.w3.org/2000/svg">
<path d="M17.4039 5.53703C11.8987 -0.753406 6.0999 -0.755656 0.595273 5.53703C0.487273 5.66022 0.420898 5.82222 0.420898 5.99997C0.420898 6.17772 0.486711 6.34028 0.595836 6.46403L0.595273 6.46347C3.34759 9.60841 6.17471 11.2037 8.99846 11.2037C11.8228 11.2037 14.6505 9.60841 17.4033 6.46347C17.5113 6.34028 17.5771 6.17828 17.5771 6.00053C17.5771 5.82278 17.5113 5.66078 17.4028 5.53647L17.4039 5.53703ZM2.07071 5.99997C6.7389 0.959406 11.2597 0.959406 15.929 5.99997C11.2597 11.0405 6.73777 11.0405 2.07071 5.99997ZM8.99959 3.04684C7.3689 3.04684 6.04646 4.36928 6.04646 5.99997C6.04646 7.63066 7.3689 8.95309 8.99959 8.95309C10.6303 8.95309 11.9527 7.63066 11.9527 5.99997C11.9505 4.36984 10.6297 3.04909 8.99959 3.04684ZM8.99959 7.54684C8.14515 7.54684 7.45271 6.85441 7.45271 5.99997C7.45271 5.14553 8.14515 4.45309 8.99959 4.45309C9.85402 4.45309 10.5465 5.14553 10.5465 5.99997C10.5453 6.85384 9.85346 7.54572 8.99959 7.54684Z" fill="black"/>
</svg>
