<svg width="23" height="23" viewBox="0 0 23 23" fill="none" xmlns="http://www.w3.org/2000/svg">
<path d="M22.4287 11.5001H20.8674C20.7447 11.5001 20.6444 11.6004 20.6444 11.7231V20.6447H2.35502V2.35539H11.2766C11.3993 2.35539 11.4997 2.25502 11.4997 2.13235V0.571063C11.4997 0.448391 11.3993 0.348022 11.2766 0.348022H1.23982C0.746341 0.348022 0.347656 0.746708 0.347656 1.24019V21.7599C0.347656 22.2534 0.746341 22.6521 1.23982 22.6521H21.7596C22.253 22.6521 22.6517 22.2534 22.6517 21.7599V11.7231C22.6517 11.6004 22.5514 11.5001 22.4287 11.5001Z" fill="white"/>
<path d="M7.14773 12.1385L7.09476 15.4535C7.09197 15.7016 7.2927 15.9051 7.54084 15.9051H7.55199L10.8418 15.8243C10.8976 15.8215 10.9534 15.7992 10.9924 15.7601L22.5877 4.1899C22.6741 4.10347 22.6741 3.96128 22.5877 3.87485L19.1222 0.412147C19.0776 0.367539 19.0219 0.348022 18.9633 0.348022C18.9048 0.348022 18.849 0.370327 18.8044 0.412147L7.21185 11.9824C7.17158 12.0245 7.14868 12.0803 7.14773 12.1385ZM8.91811 12.7965L18.9633 2.77359L20.2235 4.03098L10.1727 14.0594L8.8986 14.0901L8.91811 12.7965Z" fill="white"/>
</svg>
