<svg width="17" height="19" viewBox="0 0 17 19" fill="none" xmlns="http://www.w3.org/2000/svg">
<path d="M16.2369 18.2039C16.2369 16.8542 16.2369 16.1795 16.0703 15.6304C15.6953 14.394 14.7277 13.4264 13.4914 13.0514C12.9422 12.8848 12.2675 12.8848 10.9178 12.8848H6.08226C4.73261 12.8848 4.05777 12.8848 3.50866 13.0514C2.2723 13.4264 1.3048 14.394 0.929758 15.6304C0.763183 16.1795 0.763184 16.8542 0.763184 18.2039M12.852 5.14799C12.852 7.55152 10.9036 9.49997 8.50003 9.49997C6.0965 9.49997 4.14805 7.55152 4.14805 5.14799C4.14805 2.74447 6.0965 0.796021 8.50003 0.796021C10.9036 0.796021 12.852 2.74447 12.852 5.14799Z" stroke="white" stroke-width="1.5" stroke-linecap="round" stroke-linejoin="round"/>
</svg>
