<svg width="23" height="23" viewBox="0 0 23 23" fill="none" xmlns="http://www.w3.org/2000/svg">
<path d="M11.5 10.0625C11.7859 10.0625 12.0602 10.1761 12.2623 10.3783C12.4645 10.5805 12.5781 10.8547 12.5781 11.1406V16.1719C12.5781 16.4578 12.4645 16.732 12.2623 16.9342C12.0602 17.1364 11.7859 17.25 11.5 17.25C11.2141 17.25 10.9398 17.1364 10.7377 16.9342C10.5355 16.732 10.4219 16.4578 10.4219 16.1719V11.1406C10.4219 10.8547 10.5355 10.5805 10.7377 10.3783C10.9398 10.1761 11.2141 10.0625 11.5 10.0625ZM11.5 5.75C11.1188 5.75 10.7531 5.90145 10.4835 6.17103C10.214 6.44062 10.0625 6.80625 10.0625 7.1875C10.0625 7.56875 10.214 7.93438 10.4835 8.20397C10.7531 8.47355 11.1188 8.625 11.5 8.625H11.5101C11.8913 8.625 12.2569 8.47355 12.5265 8.20397C12.7961 7.93438 12.9476 7.56875 12.9476 7.1875C12.9476 6.80625 12.7961 6.44062 12.5265 6.17103C12.2569 5.90145 11.8913 5.75 11.5101 5.75H11.5Z" fill="white"/>
<path fill-rule="evenodd" clip-rule="evenodd" d="M0 11.5C0 8.45001 1.2116 5.52494 3.36827 3.36827C5.52494 1.2116 8.45001 0 11.5 0C14.55 0 17.4751 1.2116 19.6317 3.36827C21.7884 5.52494 23 8.45001 23 11.5C23 14.55 21.7884 17.4751 19.6317 19.6317C17.4751 21.7884 14.55 23 11.5 23C8.45001 23 5.52494 21.7884 3.36827 19.6317C1.2116 17.4751 0 14.55 0 11.5ZM11.5 2.15625C9.02188 2.15625 6.64526 3.14068 4.89297 4.89297C3.14068 6.64526 2.15625 9.02188 2.15625 11.5C2.15625 13.9781 3.14068 16.3547 4.89297 18.107C6.64526 19.8593 9.02188 20.8438 11.5 20.8438C13.9781 20.8438 16.3547 19.8593 18.107 18.107C19.8593 16.3547 20.8438 13.9781 20.8438 11.5C20.8438 9.02188 19.8593 6.64526 18.107 4.89297C16.3547 3.14068 13.9781 2.15625 11.5 2.15625Z" fill="white"/>
</svg>
